<?xml version="1.0" standalone="no"?>
<!DOCTYPE svg PUBLIC "-//W3C//DTD SVG 20010904//EN"
 "http://www.w3.org/TR/2001/REC-SVG-20010904/DTD/svg10.dtd">
<svg version="1.0" xmlns="http://www.w3.org/2000/svg"
 width="20" height="20" viewBox="0 0 512.000000 512.000000"
 preserveAspectRatio="xMidYMid meet">

<g transform="translate(0.000000,512.000000) scale(0.100000,-0.100000)"
fill="#000000" stroke="none">
<path d="M435 4961 c-214 -62 -374 -234 -421 -451 -21 -99 -20 -2733 1 -2835
47 -225 235 -413 460 -460 58 -12 193 -15 773 -15 665 0 703 -1 698 -17 -2
-10 -7 -34 -11 -53 -11 -59 -81 -192 -129 -246 l-46 -52 -107 -4 c-82 -3 -119
-9 -155 -25 -66 -30 -139 -102 -173 -170 -26 -51 -29 -69 -29 -148 0 -109 19
-159 91 -236 59 -63 122 -96 210 -109 91 -13 1835 -13 1926 0 88 13 151 46
210 109 59 63 86 121 94 204 10 110 -32 214 -117 291 -68 61 -119 79 -238 84
l-102 4 -46 52 c-48 54 -118 187 -129 246 -4 19 -9 43 -11 53 -5 16 12 17 260
17 145 0 276 4 290 10 61 23 79 112 32 159 l-26 26 -1618 5 -1617 5 -65 31
c-94 45 -153 102 -194 187 -20 40 -38 93 -42 120 l-6 47 2362 0 2362 0 -7 -47
c-22 -158 -157 -300 -316 -334 -69 -15 -99 -47 -99 -105 0 -35 5 -47 31 -68
39 -33 90 -34 180 -3 197 67 352 240 394 442 21 102 22 2736 1 2835 -48 221
-217 398 -433 454 -54 14 -279 16 -2119 15 -1930 0 -2063 -2 -2119 -18z m682
-271 c18 -47 33 -86 33 -87 0 -1 -50 -3 -111 -5 l-111 -3 -30 -34 c-26 -29
-30 -39 -25 -75 4 -27 15 -49 32 -63 25 -22 35 -23 174 -23 l148 0 37 -95 c20
-52 36 -97 36 -100 0 -3 -247 -5 -550 -5 l-550 0 0 113 c0 124 17 208 55 272
31 53 101 122 149 147 89 46 98 47 395 45 l285 -2 33 -85z m3573 54 c70 -34
138 -95 175 -159 38 -64 55 -148 55 -272 l0 -113 -1702 2 -1702 3 -103 270
c-57 149 -106 278 -109 288 -5 16 75 17 1658 15 l1663 -3 65 -31z m-2135
-1310 c30 -19 55 -36 55 -38 0 -5 -176 -116 -184 -116 -3 0 -6 54 -6 120 l0
120 40 -25 c22 -14 65 -41 95 -61z m430 -2281 c11 -77 44 -174 86 -251 l39
-74 -25 -30 c-43 -51 -28 -125 30 -153 26 -12 72 -15 223 -15 180 0 191 -1
223 -23 94 -63 88 -193 -12 -252 -33 -20 -52 -20 -989 -20 -937 0 -956 0 -989
20 -100 59 -106 189 -12 252 l34 23 591 0 c561 0 593 1 622 19 59 36 68 108
19 157 l-24 24 -390 0 -391 0 35 63 c39 71 80 190 90 260 l7 47 413 0 413 0 7
-47z"/>
<path d="M484 4591 c-12 -5 -31 -22 -44 -38 -17 -22 -21 -36 -17 -68 16 -115
178 -115 194 1 4 35 1 46 -23 73 -31 33 -76 46 -110 32z"/>
<path d="M3664 4590 c-34 -13 -64 -59 -64 -97 0 -80 109 -125 165 -69 49 49
43 115 -15 154 -35 23 -52 26 -86 12z"/>
<path d="M4114 4590 c-34 -13 -64 -59 -64 -97 0 -80 109 -125 165 -69 49 49
43 115 -15 154 -35 23 -52 26 -86 12z"/>
<path d="M4564 4590 c-34 -13 -64 -59 -64 -97 0 -80 109 -125 165 -69 49 49
43 115 -15 154 -35 23 -52 26 -86 12z"/>
<path d="M4079 1371 c-55 -55 -29 -153 44 -166 100 -19 163 100 88 167 -43 39
-92 38 -132 -1z"/>
</g>
</svg>
