<?xml version="1.0" standalone="no"?>
<!DOCTYPE svg PUBLIC "-//W3C//DTD SVG 20010904//EN"
 "http://www.w3.org/TR/2001/REC-SVG-20010904/DTD/svg10.dtd">
<svg version="1.0" xmlns="http://www.w3.org/2000/svg"
 width="20" height="20" viewBox="0 0 512.000000 512.000000"
 preserveAspectRatio="xMidYMid meet">

<g transform="translate(0.000000,512.000000) scale(0.100000,-0.100000)"
fill="#000000" stroke="none">
<path d="M435 4961 c-214 -62 -374 -234 -421 -451 -21 -99 -20 -2733 1 -2835
47 -225 235 -413 460 -460 58 -12 193 -15 773 -15 665 0 703 -1 698 -17 -2
-10 -7 -34 -11 -53 -11 -59 -81 -192 -129 -246 l-46 -52 -107 -4 c-82 -3 -119
-9 -155 -25 -66 -30 -139 -102 -173 -170 -26 -51 -29 -69 -29 -148 0 -109 19
-159 91 -236 59 -63 122 -96 210 -109 91 -13 1835 -13 1926 0 88 13 151 46
210 109 59 63 86 121 94 204 10 110 -32 214 -117 291 -68 61 -119 79 -238 84
l-102 4 -46 52 c-48 54 -118 187 -129 246 -4 19 -9 43 -11 53 -5 16 12 17 260
17 145 0 276 4 290 10 61 23 79 112 32 159 l-26 26 -1618 5 -1617 5 -65 31
c-94 45 -153 102 -194 187 -20 40 -38 93 -42 120 l-6 47 2362 0 2362 0 -7 -47
c-22 -158 -157 -300 -316 -334 -69 -15 -99 -47 -99 -105 0 -35 5 -47 31 -68
39 -33 90 -34 180 -3 197 67 352 240 394 442 21 102 22 2736 1 2835 -48 221
-217 398 -433 454 -54 14 -279 16 -2119 15 -1930 0 -2063 -2 -2119 -18z m682
-271 c18 -47 33 -86 33 -87 0 -1 -50 -3 -111 -5 l-111 -3 -30 -34 c-26 -29
-30 -39 -25 -75 4 -27 15 -49 32 -63 25 -22 35 -23 174 -23 l148 0 37 -95 c20
-52 36 -97 36 -100 0 -3 -247 -5 -550 -5 l-550 0 0 119 c0 142 21 225 76 297
58 76 95 104 184 141 53 22 63 23 339 20 l285 -2 33 -85z m3573 54 c36 -17 84
-50 108 -74 91 -92 122 -182 122 -357 l0 -113 -1702 2 -1702 3 -107 280 c-60
154 -108 283 -109 288 0 4 748 6 1663 5 l1662 -3 65 -31z m230 -1749 l0 -1005
-2360 0 -2360 0 0 1005 0 1005 2360 0 2360 0 0 -1005z m-1922 -1894 c15 -63
38 -129 67 -186 l45 -87 -25 -30 c-43 -51 -28 -125 30 -153 26 -12 72 -15 223
-15 180 0 191 -1 223 -23 94 -63 88 -193 -12 -252 -33 -20 -52 -20 -989 -20
-937 0 -956 0 -989 20 -100 59 -106 189 -12 252 l34 23 589 0 c649 0 631 -2
664 62 13 26 14 38 5 69 -21 70 -15 69 -445 69 l-385 0 44 86 c29 56 53 122
67 185 l22 99 411 0 411 0 22 -99z"/>
<path d="M484 4591 c-12 -5 -31 -22 -44 -38 -17 -22 -21 -36 -17 -68 16 -115
178 -115 194 1 4 35 1 46 -23 73 -31 33 -76 46 -110 32z"/>
<path d="M3664 4590 c-65 -26 -84 -112 -35 -161 55 -54 148 -29 167 46 10 40
-19 93 -61 111 -39 16 -42 16 -71 4z"/>
<path d="M4114 4590 c-65 -26 -84 -112 -35 -161 55 -54 148 -29 167 46 10 40
-19 93 -61 111 -39 16 -42 16 -71 4z"/>
<path d="M4564 4590 c-65 -26 -84 -112 -35 -161 55 -54 148 -29 167 46 10 40
-19 93 -61 111 -39 16 -42 16 -71 4z"/>
<path d="M2249 3771 l-29 -29 0 -342 c0 -215 4 -348 10 -361 13 -23 61 -49 93
-49 28 0 510 299 550 341 36 39 37 96 3 130 -14 13 -137 95 -274 182 -280 176
-298 183 -353 128z m306 -337 c30 -19 55 -36 55 -38 0 -5 -176 -116 -184 -116
-3 0 -6 54 -6 120 l0 120 40 -25 c22 -14 65 -41 95 -61z"/>
<path d="M844 2780 c-60 -24 -73 -112 -25 -161 l29 -29 787 0 787 0 29 29 c38
39 40 97 5 138 l-24 28 -784 2 c-430 1 -793 -2 -804 -7z"/>
<path d="M2794 2780 c-60 -24 -73 -112 -25 -161 l29 -29 187 0 187 0 29 29
c38 39 40 97 5 138 l-24 28 -184 2 c-100 1 -193 -2 -204 -7z"/>
<path d="M3544 2780 c-60 -24 -73 -112 -25 -161 l29 -29 362 0 362 0 29 29
c38 39 40 97 5 138 l-24 28 -359 2 c-197 1 -368 -2 -379 -7z"/>
<path d="M819 2361 c-48 -49 -38 -125 21 -156 43 -22 547 -22 590 0 59 31 69
107 21 156 l-29 29 -287 0 -287 0 -29 -29z"/>
<path d="M1769 2361 c-48 -49 -38 -125 21 -156 43 -22 547 -22 590 0 59 31 69
107 21 156 l-29 29 -287 0 -287 0 -29 -29z"/>
<path d="M2719 2361 c-48 -49 -38 -125 21 -156 43 -22 547 -22 590 0 59 31 69
107 21 156 l-29 29 -287 0 -287 0 -29 -29z"/>
<path d="M3669 2361 c-48 -49 -38 -125 21 -156 43 -22 547 -22 590 0 59 31 69
107 21 156 l-29 29 -287 0 -287 0 -29 -29z"/>
<path d="M4079 1371 c-55 -55 -29 -153 44 -166 100 -19 163 100 88 167 -43 39
-92 38 -132 -1z"/>
</g>
</svg>
